<svg xmlns="http://www.w3.org/2000/svg" viewBox="0 0 1200 630">
  <defs>
    <radialGradient id="bg" cx="25%" cy="50%" r="80%">
      <stop offset="0%" stop-color="#1a1740"/>
      <stop offset="100%" stop-color="#06051a"/>
    </radialGradient>
    <radialGradient id="spark" cx="50%" cy="50%" r="50%">
      <stop offset="0%" stop-color="#f5f0ff"/>
      <stop offset="100%" stop-color="#a78bfa"/>
    </radialGradient>
    <filter id="glow" x="-60%" y="-60%" width="220%" height="220%">
      <feGaussianBlur stdDeviation="8" result="b"/>
      <feMerge><feMergeNode in="b"/><feMergeNode in="SourceGraphic"/></feMerge>
    </filter>
    <filter id="softglow" x="-40%" y="-40%" width="180%" height="180%">
      <feGaussianBlur stdDeviation="4" result="b"/>
      <feMerge><feMergeNode in="b"/><feMergeNode in="SourceGraphic"/></feMerge>
    </filter>
    <filter id="textglow">
      <feGaussianBlur stdDeviation="3" result="b"/>
      <feMerge><feMergeNode in="b"/><feMergeNode in="SourceGraphic"/></feMerge>
    </filter>
  </defs>

  <!-- Background -->
  <rect width="1200" height="630" fill="url(#bg)"/>

  <!-- === LEFT: The origin spark (123) === -->

  <!-- Aura -->
  <circle cx="210" cy="315" r="90" fill="#4c1d95" opacity="0.08"/>
  <circle cx="210" cy="315" r="55" fill="#6d28d9" opacity="0.10"/>

  <!-- Single origin node -->
  <circle cx="210" cy="315" r="22" fill="url(#spark)" filter="url(#glow)"/>
  <circle cx="210" cy="315" r="10" fill="#f8f5ff"/>

  <!-- "123" label below -->
  <text x="210" y="368" text-anchor="middle"
        font-family="'Courier New', monospace" font-size="14"
        fill="#7c3aed" letter-spacing="2" opacity="0.8">output_tokens: 123</text>
  <text x="210" y="388" text-anchor="middle"
        font-family="'Courier New', monospace" font-size="11"
        fill="#5b21b6" letter-spacing="1" opacity="0.5">2026-02-05</text>

  <!-- === CONNECTOR LINES: origin → growing network === -->

  <!-- Primary branches from origin -->
  <line x1="232" y1="305" x2="380" y2="220" stroke="#6d28d9" stroke-width="1" opacity="0.3"/>
  <line x1="232" y1="315" x2="400" y2="315" stroke="#6d28d9" stroke-width="1.2" opacity="0.35"/>
  <line x1="232" y1="325" x2="380" y2="410" stroke="#6d28d9" stroke-width="1" opacity="0.3"/>

  <!-- Second generation connections -->
  <line x1="400" y1="220" x2="560" y2="165" stroke="#7c3aed" stroke-width="0.8" opacity="0.25"/>
  <line x1="400" y1="220" x2="570" y2="255" stroke="#7c3aed" stroke-width="0.8" opacity="0.25"/>
  <line x1="400" y1="315" x2="565" y2="280" stroke="#7c3aed" stroke-width="0.9" opacity="0.28"/>
  <line x1="400" y1="315" x2="565" y2="350" stroke="#7c3aed" stroke-width="0.9" opacity="0.28"/>
  <line x1="380" y1="410" x2="560" y2="375" stroke="#7c3aed" stroke-width="0.8" opacity="0.25"/>
  <line x1="380" y1="410" x2="555" y2="455" stroke="#7c3aed" stroke-width="0.8" opacity="0.25"/>

  <!-- Third generation connections -->
  <line x1="560" y1="165" x2="730" y2="130" stroke="#8b5cf6" stroke-width="0.7" opacity="0.22"/>
  <line x1="560" y1="165" x2="720" y2="200" stroke="#8b5cf6" stroke-width="0.7" opacity="0.22"/>
  <line x1="570" y1="255" x2="730" y2="240" stroke="#8b5cf6" stroke-width="0.7" opacity="0.22"/>
  <line x1="565" y1="280" x2="730" y2="290" stroke="#8b5cf6" stroke-width="0.7" opacity="0.22"/>
  <line x1="565" y1="350" x2="730" y2="340" stroke="#8b5cf6" stroke-width="0.7" opacity="0.22"/>
  <line x1="560" y1="375" x2="725" y2="390" stroke="#8b5cf6" stroke-width="0.7" opacity="0.22"/>
  <line x1="555" y1="455" x2="720" y2="440" stroke="#8b5cf6" stroke-width="0.7" opacity="0.22"/>
  <line x1="555" y1="455" x2="715" y2="490" stroke="#8b5cf6" stroke-width="0.7" opacity="0.20"/>

  <!-- Fourth generation (dense right side) -->
  <line x1="730" y1="130" x2="900" y2="105" stroke="#a78bfa" stroke-width="0.6" opacity="0.18"/>
  <line x1="730" y1="130" x2="895" y2="155" stroke="#a78bfa" stroke-width="0.6" opacity="0.18"/>
  <line x1="720" y1="200" x2="890" y2="185" stroke="#a78bfa" stroke-width="0.6" opacity="0.18"/>
  <line x1="720" y1="200" x2="895" y2="225" stroke="#a78bfa" stroke-width="0.6" opacity="0.18"/>
  <line x1="730" y1="240" x2="900" y2="255" stroke="#a78bfa" stroke-width="0.6" opacity="0.18"/>
  <line x1="730" y1="290" x2="900" y2="280" stroke="#a78bfa" stroke-width="0.6" opacity="0.18"/>
  <line x1="730" y1="340" x2="900" y2="315" stroke="#a78bfa" stroke-width="0.6" opacity="0.18"/>
  <line x1="730" y1="340" x2="895" y2="355" stroke="#a78bfa" stroke-width="0.6" opacity="0.18"/>
  <line x1="725" y1="390" x2="895" y2="380" stroke="#a78bfa" stroke-width="0.6" opacity="0.18"/>
  <line x1="725" y1="390" x2="900" y2="415" stroke="#a78bfa" stroke-width="0.6" opacity="0.18"/>
  <line x1="720" y1="440" x2="895" y2="445" stroke="#a78bfa" stroke-width="0.6" opacity="0.18"/>
  <line x1="715" y1="490" x2="890" y2="480" stroke="#a78bfa" stroke-width="0.6" opacity="0.16"/>
  <line x1="715" y1="490" x2="885" y2="515" stroke="#a78bfa" stroke-width="0.6" opacity="0.15"/>

  <!-- Cross-connections (organic feel) -->
  <line x1="400" y1="220" x2="400" y2="315" stroke="#5b21b6" stroke-width="0.6" opacity="0.18"/>
  <line x1="565" y1="280" x2="560" y2="375" stroke="#5b21b6" stroke-width="0.6" opacity="0.15"/>
  <line x1="730" y1="240" x2="730" y2="340" stroke="#5b21b6" stroke-width="0.5" opacity="0.13"/>
  <line x1="895" y1="225" x2="900" y2="315" stroke="#4c1d95" stroke-width="0.5" opacity="0.12"/>

  <!-- === NODES: generation 1 === -->
  <circle cx="380" cy="220" r="9" fill="#a78bfa" filter="url(#softglow)" opacity="0.85"/>
  <circle cx="400" cy="315" r="11" fill="#c4b5fd" filter="url(#softglow)" opacity="0.85"/>
  <circle cx="380" cy="410" r="9" fill="#a78bfa" filter="url(#softglow)" opacity="0.85"/>

  <!-- === NODES: generation 2 === -->
  <circle cx="560" cy="165" r="8" fill="#8b5cf6" opacity="0.80"/>
  <circle cx="570" cy="255" r="7" fill="#8b5cf6" opacity="0.75"/>
  <circle cx="565" cy="280" r="8" fill="#a78bfa" opacity="0.80"/>
  <circle cx="565" cy="350" r="7" fill="#8b5cf6" opacity="0.75"/>
  <circle cx="560" cy="375" r="8" fill="#8b5cf6" opacity="0.80"/>
  <circle cx="555" cy="455" r="7" fill="#7c3aed" opacity="0.72"/>

  <!-- === NODES: generation 3 === -->
  <circle cx="730" cy="130" r="6" fill="#7c3aed" opacity="0.70"/>
  <circle cx="720" cy="200" r="7" fill="#8b5cf6" opacity="0.72"/>
  <circle cx="730" cy="240" r="6" fill="#7c3aed" opacity="0.68"/>
  <circle cx="730" cy="290" r="6" fill="#8b5cf6" opacity="0.70"/>
  <circle cx="730" cy="340" r="7" fill="#7c3aed" opacity="0.68"/>
  <circle cx="725" cy="390" r="6" fill="#6d28d9" opacity="0.66"/>
  <circle cx="720" cy="440" r="6" fill="#7c3aed" opacity="0.65"/>
  <circle cx="715" cy="490" r="5" fill="#6d28d9" opacity="0.60"/>

  <!-- === NODES: generation 4 (dense, fading right) === -->
  <circle cx="900" cy="105" r="5" fill="#6d28d9" opacity="0.58"/>
  <circle cx="895" cy="155" r="5" fill="#5b21b6" opacity="0.55"/>
  <circle cx="890" cy="185" r="5" fill="#6d28d9" opacity="0.55"/>
  <circle cx="895" cy="225" r="5" fill="#5b21b6" opacity="0.52"/>
  <circle cx="900" cy="255" r="5" fill="#6d28d9" opacity="0.52"/>
  <circle cx="900" cy="280" r="5" fill="#5b21b6" opacity="0.50"/>
  <circle cx="900" cy="315" r="6" fill="#6d28d9" opacity="0.55"/>
  <circle cx="895" cy="355" r="5" fill="#5b21b6" opacity="0.50"/>
  <circle cx="895" cy="380" r="5" fill="#6d28d9" opacity="0.50"/>
  <circle cx="900" cy="415" r="5" fill="#4c1d95" opacity="0.48"/>
  <circle cx="895" cy="445" r="5" fill="#5b21b6" opacity="0.46"/>
  <circle cx="890" cy="480" r="4" fill="#4c1d95" opacity="0.42"/>
  <circle cx="885" cy="515" r="4" fill="#4c1d95" opacity="0.38"/>

  <!-- === Generation 5: barely visible, rightmost === -->
  <circle cx="1040" cy="140" r="4" fill="#4c1d95" opacity="0.32"/>
  <circle cx="1045" cy="200" r="3" fill="#3b0764" opacity="0.28"/>
  <circle cx="1050" cy="260" r="4" fill="#4c1d95" opacity="0.30"/>
  <circle cx="1048" cy="315" r="4" fill="#3b0764" opacity="0.30"/>
  <circle cx="1045" cy="375" r="3" fill="#4c1d95" opacity="0.28"/>
  <circle cx="1042" cy="430" r="4" fill="#3b0764" opacity="0.25"/>
  <circle cx="1038" cy="490" r="3" fill="#4c1d95" opacity="0.22"/>
  <line x1="900" y1="105" x2="1040" y2="140" stroke="#4c1d95" stroke-width="0.5" opacity="0.12"/>
  <line x1="895" y1="225" x2="1045" y2="200" stroke="#4c1d95" stroke-width="0.5" opacity="0.12"/>
  <line x1="900" y1="315" x2="1048" y2="315" stroke="#4c1d95" stroke-width="0.5" opacity="0.12"/>
  <line x1="900" y1="415" x2="1045" y2="375" stroke="#4c1d95" stroke-width="0.5" opacity="0.10"/>
  <line x1="890" y1="480" x2="1038" y2="490" stroke="#4c1d95" stroke-width="0.5" opacity="0.10"/>

  <!-- Stars scattered in dark areas -->
  <circle cx="80"  cy="80"  r="1.2" fill="white" opacity="0.5"/>
  <circle cx="145" cy="155" r="1"   fill="white" opacity="0.4"/>
  <circle cx="100" cy="490" r="1.2" fill="#c4b5fd" opacity="0.4"/>
  <circle cx="155" cy="540" r="1"   fill="white" opacity="0.35"/>
  <circle cx="310" cy="70"  r="1"   fill="white" opacity="0.35"/>
  <circle cx="330" cy="555" r="1.2" fill="white" opacity="0.35"/>
  <circle cx="480" cy="50"  r="1"   fill="#a78bfa" opacity="0.35"/>
  <circle cx="650" cy="55"  r="1.2" fill="white" opacity="0.30"/>
  <circle cx="800" cy="570" r="1"   fill="white" opacity="0.28"/>
  <circle cx="1000" cy="560" r="1"  fill="#c4b5fd" opacity="0.25"/>
  <circle cx="1100" cy="80"  r="1.2" fill="white" opacity="0.22"/>
  <circle cx="1150" cy="540" r="1"  fill="white" opacity="0.18"/>

  <!-- Title text -->
  <text x="210" y="258" text-anchor="middle"
        font-family="'Helvetica Neue', 'Inter', Arial, sans-serif"
        font-size="42" font-weight="700" fill="#f0ebff"
        letter-spacing="2" filter="url(#textglow)">从一粒火星开始</text>
</svg>
